<?xml version="1.0" encoding="UTF-8"?>
<svg id="Calque_2" data-name="Calque 2" xmlns="http://www.w3.org/2000/svg" viewBox="0 0 136.9 165.03">
  <defs>
    <style>
      .cls-1 {
        fill: #24d0c6;
      }

      .cls-1, .cls-2, .cls-3, .cls-4, .cls-5, .cls-6, .cls-7, .cls-8, .cls-9, .cls-10, .cls-11, .cls-12, .cls-13, .cls-14 {
        stroke-width: 0px;
      }

      .cls-2 {
        fill: #163d56;
      }

      .cls-3 {
        fill: #11374e;
      }

      .cls-4 {
        fill: #7ce9df;
      }

      .cls-5 {
        fill: #1cb8ba;
      }

      .cls-6 {
        fill: #0c2c3b;
      }

      .cls-7 {
        fill: #1a445e;
      }

      .cls-8 {
        fill: #0e2f43;
      }

      .cls-9 {
        fill: #4bdfd2;
      }

      .cls-10 {
        fill: #e87779;
      }

      .cls-11 {
        fill: #f26971;
      }

      .cls-12 {
        fill: #e8ae78;
      }

      .cls-13 {
        fill: #0f354b;
      }

      .cls-14 {
        fill: #f99f64;
      }
    </style>
  </defs>
  <g id="Calque_1-2" data-name="Calque 1">
    <g>
      <path class="cls-13" d="m122.19,37.7c7.51,7.93,11.34,17.74,13.36,28.14,3.56,18.32.12,35.44-10.4,51-5.16-3.56-4.29,2.2-6.05,3.91-.99,0-1.99,0-2.98,0-.76-3.54,1.69-5.99,2.75-8.96,1.8-5,3.43-10,5.74-14.83,1.42-2.97,2.35-6.58-1.2-9.23-.15-.27-.29-.54-.42-.83.39-5.18.69-10.36-.1-16.05-9.86,5.53-19.2,10.77-28.54,16-2.64.26-3.23,1.84-2.63,4.15.34,1.28.78,2.54-.62,3.54-4.51,3.21-5.17,7.43-4.52,12.78.41,3.35,1.25,7.72-2.58,10.42-.07-5.99-.11-11.99-.23-17.98-.03-1.25.63-2.95-.88-3.6-1.2-.51-2.11.8-2.84,1.64-3.3,3.79-7.67,4.2-12.28,4.29-5.8.12-10.2-2.75-14.41-7.21v8c-.03,5.64-.06,11.28-.09,16.92-.14,9.98-.28,19.96-.41,29.94-2.87-3.39-6.98-5.53-9.32-9.53-1.07-1.83-2.91-3.37-5.35-1.5-5.8-2.43-10.66-6.39-16.75-10.82,0,6.99,0,12.99,0,18.99,0,1.82.03,3.65-.03,5.47-.09,2.94-1.1,5.33-4.48,5.43-3.58.1-4.97-2.19-4.98-5.44-.02-7.96.03-15.92.05-23.88,0-3.48,0-6.96.01-10.45.5-1.05,1.1-2.22,2.45-1.96,3.85.75,5.28-2.05,6.98-4.52,5.58,7.06,12.25,12.78,20.69,17.12.99-6.15.77-11.74.25-17.34,1.05-6.37.11-12.79.6-19.17.17-2.17-.75-3.76-1.89-5.37.7-.35,1.38-.91,2.12-1.01,1.63-.21,2.41-1.34,2.5-2.63.11-1.67-1.59-2.17-2.76-2.2-2.58-.05-4.22-2.59-6.9-2.27-1.09.13-1.98-.6-1.59-1.83.33-1.05,1.25-.59,2.06-.45,1.85.32,4.03,1.33,4.64-1.74,6.86,4.46,15.64,5.76,20.02,14.33,2.58,5.06,12.09,4.92,14.41-.11,2.76-6,7.79-8.02,12.77-10.81,9.8-5.49,19.38-11.39,29.22-16.82,6.85-3.78,7.42-5.72,2.32-11.4,4.24-.98,5.46-3.12,3.49-6.99-.88-1.73-1.41-3.31-1.21-5.18Z"/>
      <path class="cls-7" d="m.33,71.81C4.3,33.59,39.07,5.94,76.89,10.95c.46.06.87.42,1.31.65-.06,2.87,2.14,3.63,4.22,4.03,2.01.39,3.76,1.2,5.52,2.1,1.06.54,2.22,1.17,1.7,2.59-.45,1.25-1.67,1.57-2.9,1.38-1.3-.21-2.55-.78-3.85-.84-2.92-.14-5.68.09-4.11,4.33.45,1.22.3,2.39-.9,3.02-1.62.85-2.61-.49-3.16-1.56-1.32-2.53-2.96-3.26-5.63-2.04-1.66.76-5.46-1.16-3.89,3.56.12.37-3.7,2.67-2.98,5.63,0,0-.28-.23-.28-.23l.1.04c-7.47-.73-11.49,5.69-17.31,8.37-1.93-1.06-4.35-.93-5.31-3.97-.81-2.57-1.59.22-2.33.79-2.02-.2-3.13.59-2.93,2.76-.22.24-.49.35-.81.31-4.76-.44-4.33,2.94-4.15,5.87.2,3.19-.22,5.59-4.24,5.22l.05.06c-.19-4.12-4.1-3.69-6.44-5.02-1.36-.77-2.38.59-2.42,2.21-4.18,4.4-4.17,5.55.13,10.25-.68.91-1.41,1.8-2.04,2.75-4.84,7.23-2.52,15.58-3.55,23.41-.17,1.31,1.29,3.45-.72,3.71-2.69.36-1.62-2.26-1.74-3.67-.18-1.98.02-3.99-.07-5.97-.06-1.23.61-3.1-1.07-3.45-2.52-.52-1.64,1.81-1.97,3.04-.32,1.23-.85,2.29-2.23,2.25-2.02-.05-1.53-1.73-1.7-2.97-.35-2.57.83-5.31-.83-7.75Z"/>
      <path class="cls-3" d="m122.19,37.7c-.2,1.87.33,3.45,1.21,5.18,1.97,3.87.75,6.01-3.49,6.99-2.83-.2-5.02,1.34-7.32,2.65-13.17,7.55-26.37,15.06-39.53,22.62-2.7,1.55-5.32,2.59-8.35.74-6.15-3.76-12.37-7.42-18.56-11.13.22-2.12,1.81-1.86,3.29-1.99,4.77-.42,10.3-5.76,10.89-10.43,6.88,4.86,14.23,2.54,17.43-1.7,3.65-4.85,2.53-11.33-2.82-16.36,2.54-2.4,3.56-.04,4.79,1.55,3.15,4.06,9.29,3.56,11.29-1.2.87-2.08,2-2.52,3.95-2.92,3.11-.64,5.97-2.36,6.97-5.46,1.1-3.4-2.35-4.13-4.27-5.74-1.07-.89-3.43-1.48-1.55-3.7,2.57.88,5.31,1.47,7.06,3.87,1.44,3.68,4.81,4.78,8.06,6.04,0,0-.05-.03-.05-.03,2.62,4.74,4.69,10.03,11.03,11.04l-.02-.03Zm-24.17-2.25c-.12,4.13-3.79,4.06-6.38,5.94,3.88.59,5.5,2.87,6.35,6.16.61-3.21,2.25-5.3,5.21-6.69-3.21-.55-4.24-2.64-5.18-5.41Z"/>
      <path class="cls-8" d="m84.01,117.75c3.83-2.71,2.99-7.07,2.58-10.42-.65-5.35,0-9.57,4.52-12.78,1.41-1,.96-2.25.62-3.54-.6-2.31-.01-3.88,2.63-4.15,0,.34,0,.68,0,1.02-.13,12.91-.26,25.82-.37,38.74,0,.99-.02,2.03,1.19,2.44,1.17,1.13,2.26,2.36,3.54,3.35.6.46,2.11.35,1.8-.64-1.95-6.25,3-4.51,5.74-4.93,2.49-.39,4.27-.73,3.09-3.9-.39-1.05-.32-2.26-.46-3.4l-.03-.09c2.42.44,4.84.87,7.27,1.31.99,0,1.99,0,2.98,0,.14,1.56-.22,2.99,1.7,4.24,1.84,1.19,1.3,4.03.49,5.65-1.01,2.04-2.45-.1-3.72-.54-.76-.26-1.62-.25-2.44-.36-.74-1.06-1.47-1.04-2.4-.14-4.82,4.66-10.62,7.9-16.49,10.94-2.42,1.25-2.77,2.99-2.64,5.28,1.13,20.29-6.11,19.42-19.94,18.81-6.63-.29-13.27-.54-19.91-.87-6.24-.31-10.48-4.6-10.71-10.77-.06-1.66-.23-3.36.03-4.98.69-4.39-.33-7.74-4.89-9.3,2.44-1.87,4.28-.33,5.35,1.5,2.34,4,6.45,6.13,9.32,9.53.19,2.66,1.26,4.12,4.27,4.19,7.11.17,14.22.69,21.33.95,1.48.05,3.5.67,3.9-1.83l-.13-.12c.83.01.77-.69.96-1.19-.02-3.36-.03-6.72-.05-10.09,1.57-5.91.18-11.97.86-17.92,1.24-.08,2.04-.6,2.04-1.99,0-1.39-.78-1.91-2.03-2,0-.67,0-1.35-.01-2.02Z"/>
      <path class="cls-2" d="m.33,71.81c1.66,2.43.48,5.17.83,7.75.17,1.24-.32,2.91,1.7,2.97,1.38.03,1.91-1.03,2.23-2.25.32-1.23-.55-3.57,1.97-3.04,1.68.35,1.01,2.22,1.07,3.45.1,1.99-.11,4,.07,5.97.13,1.41-.95,4.03,1.74,3.67,2-.26.54-2.4.72-3.71,1.03-7.82-1.28-16.18,3.55-23.41.63-.95,1.36-1.83,2.04-2.75,8.87,3.75,16.82,9.11,24.91,14.23-.61,3.07-2.79,2.06-4.64,1.74-.8-.14-1.72-.6-2.06.45-.39,1.24.5,1.96,1.59,1.83,2.68-.32,4.32,2.22,6.9,2.27,1.17.02,2.87.52,2.76,2.2-.09,1.28-.87,2.41-2.5,2.63-.74.1-1.41.66-2.12,1.01-9.08-5.27-18.16-10.54-27.56-15.99-.5,4.57-.45,8.8-.11,13.04-.91,5.78,1.5,11.12,2.24,16.68-2.21,2.63-1.3,4.22,1.7,5.11l-.08-.04c-.17,2.38-.61,4.92,2.98,5.11l-.08-.05,1.13,1.02.14-.11c-1.7,2.47-3.13,5.27-6.98,4.52-1.36-.27-1.95.9-2.45,1.96C2.49,104.05-1.2,88.59.33,71.81Z"/>
      <path class="cls-2" d="m96.11,16.8c-1.88,2.22.49,2.81,1.55,3.7,1.92,1.61,5.38,2.34,4.27,5.74-1.01,3.1-3.86,4.82-6.97,5.46-1.94.4-3.08.85-3.95,2.92-1.99,4.76-8.14,5.26-11.29,1.2-1.24-1.59-2.25-3.95-4.79-1.55-.28-.19-.55-.39-.83-.58-.46-.25-.93-.51-1.39-.76-3.55-.27-7.09-.5-10.5.88-.71-2.96,3.1-5.27,2.98-5.64-1.57-4.72,2.23-2.8,3.89-3.56,2.67-1.22,4.31-.49,5.63,2.04.55,1.06,1.54,2.41,3.16,1.56,1.2-.63,1.35-1.8.9-3.02-1.57-4.24,1.19-4.47,4.11-4.33,1.29.06,2.55.63,3.85.84,1.23.19,2.45-.13,2.9-1.38.51-1.42-.65-2.05-1.7-2.59-1.76-.9-3.51-1.71-5.52-2.1-2.08-.4-4.28-1.16-4.22-4.03,6.3.6,12.34,2.1,17.92,5.21Z"/>
      <path class="cls-6" d="m115.14,129.75c.82.11,1.67.1,2.44.36,1.27.44,2.71,2.58,3.72.54.81-1.63,1.35-4.46-.49-5.65-1.91-1.24-1.56-2.67-1.7-4.24,1.75-1.71.88-7.47,6.05-3.91-.78,2.22-.9,4.51-.89,6.86.04,11.82-.07,23.64.01,35.47.02,3.6-1.18,5.9-5.03,5.86-3.84-.03-4.43-2.66-4.39-5.83.14-9.82.2-19.64.29-29.45Z"/>
      <path class="cls-2" d="m117.92,19.08c-5.23-.32-8.92-4.11-8.73-8.97.23-5.55,4.79-9.77,10.16-9.39,4.77.33,8.97,5.03,8.76,9.8-.23,5.22-4.62,8.9-10.19,8.56Z"/>
      <path class="cls-7" d="m9.02,9.96C8.95,4.5,13.01,0,18.02,0c4.63,0,9.01,4.5,9.18,9.45.19,5.28-3.96,9.37-9.45,9.33-5.22-.04-8.65-3.5-8.73-8.81Z"/>
      <path class="cls-13" d="m122.21,37.73c-6.35-1.01-8.41-6.3-11.03-11.04,5.19,2.17,8.22,6.49,11.03,11.04Z"/>
      <path class="cls-2" d="m111.23,26.72c-3.25-1.26-6.62-2.37-8.06-6.04,3.35,1.13,6.44,2.61,8.06,6.04Z"/>
      <path class="cls-5" d="m84.01,123.75c-.68,5.95.71,12.01-.86,17.92-.47-1.97.59-4.21-1.03-5.98-.52-4.28,2.01-9.39-3.75-12.19-4.13-2.01-8.24-4.15-12.02-6.74-5.3-3.63-12.36-5.8-12.99-13.87v-8c4.21,4.45,8.62,7.33,14.41,7.21,4.61-.09,8.98-.5,12.28-4.29.73-.83,1.64-2.15,2.84-1.64,1.51.64.86,2.34.88,3.6.12,5.99.16,11.99.23,17.98,0,.67,0,1.35.01,2.02,0,1.33,0,2.66-.01,3.98Z"/>
      <path class="cls-10" d="m13.44,83.84c-.34-4.24-.39-8.47.11-13.04,9.4,5.46,18.48,10.73,27.56,15.99,1.14,1.61,2.06,3.2,1.89,5.37-.48,6.38.45,12.8-.6,19.17-1.09-3.09.91-6.58-1.22-9.54-1.62-1.1-3.16-2.36-4.88-3.27-6.21-3.32-11.34-8.46-18.15-10.76h0c-.56-1.32-1.54-1.99-2.98-2-.58-.64-1.17-1.28-1.75-1.93Z"/>
      <path class="cls-11" d="m94.36,87.88c0-.34,0-.68,0-1.02,9.34-5.24,18.68-10.47,28.54-16,.79,5.69.5,10.87.1,16.05-.31.32-.62.64-.93.95-4.56.67-7.88,4.03-12.02,5.54-5.28,1.93-8.98,6.92-14.9,7.5-.53-4.33.78-8.76-.78-13.03Z"/>
      <path class="cls-1" d="m53.37,102.89c.63,8.07,7.69,10.24,12.99,13.87,3.78,2.59,7.89,4.73,12.02,6.74,5.75,2.8,3.23,7.91,3.75,12.19-.22,2.08-1.09,2.06-2.59.96-3.45-2.54-6.84-5.2-10.5-7.4-4.88-2.94-8.95-7.32-14.83-8.54-.31-.3-.62-.6-.93-.9.03-5.64.06-11.28.09-16.92Z"/>
      <path class="cls-4" d="m53.28,119.81c.31.3.62.6.93.9-.02,3.65-.07,7.3-.07,10.95,0,2.64.83,4.8,3.27,6.26,8.34,5.01,16.64,10.09,24.96,15.14-.4,2.5-2.42,1.88-3.9,1.83-7.11-.26-14.22-.78-21.33-.95-3.02-.07-4.09-1.53-4.27-4.19.14-9.98.28-19.96.41-29.94Z"/>
      <path class="cls-12" d="m13.44,83.84c.58.64,1.17,1.28,1.75,1.93-.19,2.43.6,3.39,2.98,2,0,0,0,0,0,0-1.16,5.2-2.05,10.05.69,15.45,1.9,3.74,5.62,2.98,7.79,5.43,3.19,3.6,7.44,5.97,11.38,8.7,2.42,1.67,3.15,1.07,3.14-1.62-.02-4.64.02-9.28.03-13.92,2.12,2.96.13,6.45,1.22,9.54.52,5.6.73,11.2-.25,17.34-8.44-4.35-15.11-10.07-20.69-17.12,0,0-.14.11-.14.11-.38-.34-.75-.68-1.13-1.02,0,0,.08.05.08.05-.2-2.17-1.06-3.95-2.98-5.11,0,0,.08.04.08.04-.57-1.7-1.13-3.41-1.7-5.11-.74-5.56-3.15-10.89-2.24-16.68Z"/>
      <path class="cls-6" d="m116.12,120.75c-2.42-.44-4.84-.87-7.27-1.31,3.77-5.33,8.86-9.84,10.35-16.6l-.02.02c.95-.42.99-1.17.74-2.03.07-.35.14-.7.21-1.05,1.37-.66.82-1.94.95-2.99l.03-.04c1.82-2.74,1.56-6,2.3-9.01,3.55,2.66,2.62,6.27,1.2,9.23-2.31,4.83-3.94,9.83-5.74,14.83-1.07,2.96-3.52,5.42-2.75,8.96Z"/>
      <path class="cls-12" d="m123.42,87.73c-.74,3.01-.48,6.28-2.3,9.01-.47-3.05.74-5.91.95-8.89.31-.32.62-.64.93-.96.12.28.26.56.42.83Z"/>
      <path class="cls-2" d="m46.15,64.76c-7.25-3.61-14.45-7.3-21.2-11.81,4.02.37,4.44-2.03,4.24-5.22-.18-2.93-.61-6.31,4.15-5.87.89,2.91,5.23,3.23,5.15,7.25.37-4.23,4.87-4.24,6.24-7.13,5.82-2.68,9.84-9.1,17.3-8.37-6.35,6.55-6.79,11.4-1.7,18.73-.59,4.67-6.12,10.01-10.89,10.43-1.48.13-3.07-.12-3.29,1.99Z"/>
      <path class="cls-2" d="m25,53c-3.02-.72-5.26-3.94-8.86-2.81.04-1.62,1.06-2.98,2.42-2.21,2.34,1.33,6.25.9,6.44,5.02Z"/>
      <path class="cls-2" d="m37.08,38.79c.37,2.35-1.59,2.22-2.93,2.76-.2-2.17.9-2.95,2.93-2.76Z"/>
      <path class="cls-9" d="m82.37,153.06c-8.32-5.05-16.61-10.14-24.96-15.14-2.43-1.46-3.26-3.62-3.27-6.26,0-3.65.04-7.3.07-10.95,5.87,1.21,9.94,5.6,14.83,8.54,3.66,2.2,7.05,4.86,10.5,7.4,1.5,1.1,2.37,1.12,2.59-.96,1.62,1.77.56,4.01,1.03,5.98.02,3.36.03,6.72.05,10.09-.32.4-.64.79-.96,1.19l.13.12Z"/>
      <path class="cls-12" d="m119.21,102.85c-1.49,6.75-6.58,11.26-10.35,16.6,0,0,.03.08.03.09-4.57,3.18-9.14,6.35-13.71,9.53-1.21-.42-1.2-1.45-1.19-2.44.12-12.91.25-25.82.37-38.74,1.56,4.26.26,8.7.78,13.02,1.28,3.32.78,6.81,1.01,10.24.2,2.95,2.03,6.22,4.79,3.81,5.62-4.89,13.56-6.07,18.27-12.11Z"/>
      <path class="cls-6" d="m95.18,129.05c4.57-3.17,9.14-6.35,13.71-9.53.14,1.14.07,2.35.46,3.4,1.18,3.16-.6,3.51-3.09,3.9-2.74.42-7.69-1.31-5.74,4.93.31.99-1.2,1.1-1.8.64-1.28-.98-2.37-2.22-3.54-3.35Z"/>
      <path class="cls-13" d="m84.01,123.75c0-1.33,0-2.66.01-3.98,1.25.09,2.03.61,2.03,2,0,1.39-.8,1.9-2.04,1.99Z"/>
      <path class="cls-4" d="m82.24,152.95c.32-.4.64-.79.96-1.19-.19.5-.14,1.2-.96,1.19Z"/>
      <path class="cls-13" d="m17.3,105.59c1.92,1.16,2.78,2.94,2.98,5.11-3.59-.19-3.15-2.73-2.98-5.11Z"/>
      <path class="cls-13" d="m15.68,100.52c.56,1.7,1.13,3.41,1.7,5.11-3-.9-3.91-2.49-1.7-5.11Z"/>
      <path class="cls-13" d="m20.2,110.64c.38.34.75.68,1.13,1.02-.38-.34-.75-.68-1.13-1.02Z"/>
      <path class="cls-3" d="m74.11,33.68c-.46-.25-.93-.51-1.39-.76.46.25.93.51,1.39.76Z"/>
      <path class="cls-14" d="m41.19,101.8c-.01,4.64-.05,9.28-.03,13.92.01,2.69-.73,3.29-3.14,1.62-3.94-2.73-8.19-5.09-11.38-8.7-2.17-2.45-5.89-1.7-7.79-5.43-2.74-5.4-1.85-10.25-.69-15.45,6.81,2.3,11.94,7.45,18.15,10.76,1.72.92,3.26,2.17,4.88,3.27Z"/>
      <path class="cls-14" d="m18.16,87.77c-2.38,1.4-3.17.44-2.98-2,1.44,0,2.42.68,2.98,2Z"/>
      <path class="cls-14" d="m119.21,102.85c-4.72,6.04-12.65,7.21-18.27,12.11-2.76,2.4-4.59-.86-4.79-3.81-.23-3.43.28-6.92-1.01-10.24,5.92-.58,9.63-5.57,14.9-7.5,4.14-1.51,7.47-4.87,12.02-5.54-.21,2.98-1.42,5.84-.95,8.89,0,0-.03.04-.03.04-1.17.72-.96,1.89-.95,2.99-.07.35-.14.7-.21,1.05-.74.5-.82,1.23-.74,2.03l.02-.02Z"/>
      <path class="cls-12" d="m120.14,99.78c-.01-1.1-.22-2.27.95-2.99-.14,1.06.42,2.33-.95,2.99Z"/>
      <path class="cls-12" d="m119.19,102.86c-.08-.8,0-1.53.74-2.03.24.86.21,1.61-.74,2.03Z"/>
    </g>
  </g>
</svg>