<svg version="1.1" id="Calque_1" xmlns="http://www.w3.org/2000/svg" x="0" y="0" viewBox="0 0 595.28 91.99" style="enable-background:new 0 0 595.28 91.99" xml:space="preserve"><style>.st0{fill:#010202}.st1{font-family:&apos;TheTheslaOhago&apos;}.st2{font-size:11px}</style><switch><g><text transform="translate(154.13 40.67)"><tspan x="0" y="0" class="st0 st1 st2">RCCM : COTONOU N° RCCM RB / COT / 18 B 20562   IFU : 3201810196538</tspan><tspan x="5.49" y="13" class="st0 st1 st2">: 03 BP 1859 Cotonou, Bénin     : 21 32 48 53 - 64 80 74 25 - 95 40 78 22</tspan><tspan x="42.17" y="26" class="st0 st1 st2">: www.istelecoms.info         : contact@istelecoms.info</tspan></text><path class="st0" d="M156.32 47.23c-.88-.87-1.94-1.31-3.17-1.31s-2.29.44-3.17 1.33c-.88.88-1.32 1.94-1.32 3.17.03 1.23.47 2.28 1.34 3.16.87.88 1.92 1.32 3.15 1.32s2.28-.44 3.17-1.32c.88-.88 1.32-1.93 1.32-3.16 0-1.24-.44-2.3-1.32-3.19zm-.48 4.72c0 .26-.21.47-.47.47h-4.43a.47.47 0 0 1-.47-.47v-2.43l1.96 1.4c.21.15.46.23.73.23.26 0 .51-.08.73-.23l1.96-1.4v2.43zm-.13-2.83-2.07 1.48c-.3.21-.69.21-.99 0l-2.07-1.48a.298.298 0 0 1-.12-.24c0-.26.21-.47.47-.47h4.43c.26 0 .47.21.47.47.01.09-.04.18-.12.24zM198.03 61.48c-.16-.22-.34-.42-.54-.62a5.04 5.04 0 0 0-2.62-1.41c.61.6 1.09 1.28 1.43 2.03h1.73zM193.61 61.48v-2.03c-.7.59-1.23 1.27-1.61 2.03h1.61zM193.61 61.98h-1.84c-.15.39-.27.79-.35 1.2h2.19v-1.2zM192.86 59.45c-1.01.2-1.88.67-2.62 1.41-.2.2-.38.4-.54.62h1.75c.32-.75.79-1.43 1.41-2.03zM191.23 61.98h-1.85c-.21.38-.37.78-.47 1.2h1.99c.07-.41.18-.81.33-1.2zM195.96 61.98h-1.84v1.2h2.21c-.08-.41-.2-.81-.37-1.2zM194.12 59.43v2.05h1.63c-.39-.78-.93-1.46-1.63-2.05zM196.5 61.98c.14.39.25.79.33 1.2h1.99a5.16 5.16 0 0 0-.47-1.2h-1.85zM194.12 66.99h1.84c.16-.39.29-.79.37-1.2h-2.21v1.2zM194.87 69.53c1.01-.2 1.88-.67 2.62-1.41.2-.2.38-.41.54-.64h-1.74c-.33.76-.81 1.44-1.42 2.05zM190.89 65.79h-1.99c.11.42.26.82.47 1.2h1.85c-.14-.4-.25-.8-.33-1.2zM194.12 67.48v2.07c.7-.61 1.25-1.3 1.63-2.07h-1.63zM196.5 66.99h1.84c.21-.38.37-.78.47-1.2h-1.99c-.06.4-.17.8-.32 1.2zM193.61 69.53v-2.05h-1.63c.39.77.93 1.45 1.63 2.05zM189.69 67.48c.16.23.34.44.54.64a5.04 5.04 0 0 0 2.62 1.41c-.61-.6-1.09-1.29-1.43-2.05h-1.73zM191.76 66.99h1.84v-1.2h-2.19c.08.41.2.81.35 1.2zM190.61 63.7h.23l.38 1.16.37-1.15h.29l-.54 1.57h-.24l-.38-1.12-.38 1.12h-.24l-.54-1.57h.3l.37 1.15.38-1.16zM193.75 63.7h.23l.38 1.16.37-1.15h.29l-.54 1.57h-.24l-.38-1.12-.38 1.12h-.24l-.54-1.57h.3l.37 1.15.38-1.16zM196.9 63.7h.23l.38 1.16.37-1.15h.29l-.54 1.57h-.24l-.38-1.12-.38 1.12h-.24l-.54-1.57h.3l.37 1.15.38-1.16z"/><path d="M306.76 54.43c-.3 0-.58-.11-.85-.23-1.13-.49-2.16-1.13-3.04-2a9.168 9.168 0 0 1-1.79-2.52c-.14-.28-.27-.57-.38-.86-.3-.79.03-1.5.82-1.81.21-.08.42-.14.63-.04.14.07.27.18.37.3.37.4.69.83.92 1.32.15.32.1.57-.19.79-.1.08-.21.16-.3.25-.16.16-.19.36-.14.57.1.39.31.73.56 1.04.34.42.77.71 1.26.91.38.15.65.07.9-.25.06-.08.12-.16.19-.23.19-.19.41-.24.65-.12.27.14.54.29.78.46.27.19.51.42.75.64.19.18.24.41.16.67-.17.52-.45.92-1.01 1.06l-.17.03c-.04.01-.08.01-.12.02zM308.18 50.01c-.02.16-.03.33-.06.49-.02.13-.13.2-.25.2-.1 0-.22-.08-.24-.19-.01-.05-.01-.11-.01-.16.21-1.41-.85-2.71-2.23-2.93-.21-.03-.44-.02-.66-.02-.05 0-.11.01-.16.01-.15 0-.26-.1-.27-.23-.01-.14.08-.26.23-.27.2-.02.41-.05.61-.03 1.23.1 2.14.71 2.72 1.8.21.41.31.86.32 1.33z"/><path d="M304.98 47.73c1.01-.01 1.94.71 2.23 1.65.08.28.12.56.08.85-.02.15-.13.25-.28.24a.243.243 0 0 1-.23-.27c.01-.28-.01-.56-.12-.83-.3-.72-1.04-1.18-1.82-1.11-.13.01-.24-.01-.31-.14-.09-.17.02-.36.22-.38.07 0 .15 0 .23-.01z"/><path d="M306.43 49.96v.09c-.01.16-.11.26-.25.26-.15 0-.26-.1-.26-.27-.01-.37-.19-.64-.51-.81-.13-.07-.28-.09-.43-.12-.18-.03-.29-.1-.3-.25-.01-.16.1-.27.27-.28.42-.01.78.16 1.07.45.25.27.41.57.41.93z"/><path class="st0" d="M332.68 60.76c-.03-.03-.05-.05-.08-.07-.03.08-.07.15-.11.22-.23.38-.54.64-.92.79l-.11.05c-.05.02-.11.04-.16.05l.01.03c.02.03.04.06.05.1h.36c.26 0 .48.21.48.47 0 .09-.05.18-.13.24L330 64.12c-.29.21-.69.21-.98 0l-2.07-1.48a.309.309 0 0 1-.13-.24c0-.19.11-.35.28-.42a3.27 3.27 0 0 1-.74-1.23l-.02.02c-.88.89-1.32 1.94-1.32 3.17.03 1.23.47 2.28 1.34 3.16s1.92 1.32 3.15 1.32 2.28-.44 3.17-1.32c.88-.88 1.32-1.93 1.32-3.16 0-1.24-.44-2.3-1.32-3.18zm-.48 4.71c0 .26-.22.47-.48.47h-4.42c-.26 0-.48-.21-.48-.47v-2.43l1.96 1.4c.22.15.47.24.73.24s.51-.09.73-.24l1.96-1.4v2.43z"/><path class="st0" d="M329.56 62.47c-.77 0-1.43-.27-1.98-.82s-.82-1.21-.82-1.98.27-1.43.82-1.98c.55-.55 1.21-.82 1.98-.82s1.41.26 1.93.77.78 1.15.78 1.92c0 .42-.08.77-.25 1.04-.17.27-.38.46-.64.56l-.12.05c-.15.06-.32.09-.5.09-.46 0-.75-.19-.85-.56-.24.22-.49.34-.75.34-.24 0-.43-.07-.58-.22s-.23-.33-.23-.55c0-.42.26-.73.77-.91.36-.1.62-.16.78-.16-.02-.45-.15-.68-.41-.68a.41.41 0 0 0-.38.22c-.06.11-.09.22-.09.32 0 .07.01.13.03.19v.01c0 .02-.04.03-.12.03-.04 0-.08-.01-.12-.02-.14-.06-.21-.18-.21-.35 0-.17.09-.31.26-.42.15-.1.34-.15.58-.15h.02c.4 0 .72.13.96.4.18.2.28.49.28.86v.74c0 .13.02.22.05.28.05.1.11.15.18.15.26 0 .46-.12.59-.37.14-.25.21-.55.21-.92 0-.62-.21-1.13-.62-1.53-.41-.4-.92-.6-1.54-.6s-1.15.22-1.59.66c-.44.44-.66.96-.66 1.58 0 .62.22 1.15.66 1.59.44.44.97.66 1.59.66.35 0 .68-.08.97-.23l.32.46c-.4.24-.83.35-1.3.35zm-.03-1.81c.14 0 .26-.05.35-.16v-1.05c-.33.05-.57.22-.72.5-.03.07-.04.14-.04.21 0 .1.03.2.08.3.06.14.17.2.33.2z"/><path style="fill:#077f36" d="M95.54 60.37H0V31.61h123.89z"/></g></switch></svg>